<?xml version="1.0" standalone="no"?>
<!DOCTYPE svg PUBLIC "-//W3C//DTD SVG 20010904//EN"
 "http://www.w3.org/TR/2001/REC-SVG-20010904/DTD/svg10.dtd">
<svg version="1.0" xmlns="http://www.w3.org/2000/svg"
 width="512.000000pt" height="512.000000pt" viewBox="0 0 512.000000 512.000000"
 preserveAspectRatio="xMidYMid meet">
<metadata>
Created by potrace 1.14, written by Peter Selinger 2001-2017
</metadata>
<g transform="translate(0.000000,512.000000) scale(0.100000,-0.100000)"
fill="#000000" stroke="none">
<path d="M2540 4844 c0 -7 -28 -10 -77 -10 -43 1 -84 -3 -90 -8 -9 -5 -13 -4
-13 5 0 9 -3 10 -8 4 -4 -6 -25 -11 -47 -11 -22 -1 -69 -4 -105 -9 -36 -4 -78
-9 -95 -11 -16 -1 -30 -3 -30 -4 0 -1 -16 -4 -35 -6 -19 -3 -55 -9 -80 -15
-25 -5 -59 -11 -77 -14 -18 -2 -37 -6 -43 -10 -6 -4 -21 -8 -33 -10 -12 -1
-42 -8 -67 -15 -25 -7 -52 -14 -60 -15 -8 -2 -15 -4 -15 -5 0 -1 -7 -3 -15 -5
-38 -9 -60 -16 -125 -38 -67 -23 -92 -33 -160 -63 -16 -7 -46 -20 -67 -28 -20
-9 -41 -16 -47 -16 -6 0 -11 -4 -11 -10 0 -5 -9 -10 -20 -10 -11 0 -20 -5 -20
-11 0 -6 -7 -9 -15 -5 -8 3 -15 1 -15 -4 0 -6 -7 -10 -15 -10 -8 0 -15 -5 -15
-11 0 -5 -4 -7 -10 -4 -5 3 -10 2 -10 -3 0 -6 -7 -13 -16 -16 -10 -4 -13 -2
-7 7 4 6 -8 0 -26 -15 -30 -26 -44 -32 -64 -29 -5 1 -6 -2 -3 -7 3 -5 -15 -19
-39 -31 -25 -12 -45 -27 -45 -32 0 -6 -4 -8 -9 -5 -4 3 -16 -3 -26 -14 -10
-11 -21 -18 -25 -15 -3 2 -13 -5 -20 -16 -8 -10 -18 -19 -23 -19 -5 0 -30 -17
-55 -37 -26 -21 -53 -42 -60 -48 -7 -5 -30 -27 -52 -47 -22 -20 -40 -35 -40
-34 0 2 -22 -19 -50 -46 -27 -27 -50 -53 -50 -59 0 -5 -7 -9 -15 -9 -8 0 -15
-3 -15 -7 0 -5 -16 -26 -36 -48 -37 -42 -55 -65 -104 -130 -40 -54 -43 -58
-57 -81 -65 -105 -83 -137 -83 -145 0 -5 -5 -9 -11 -9 -5 0 -7 -4 -4 -10 3 -6
1 -10 -4 -10 -6 0 -10 -3 -9 -7 1 -5 -6 -23 -15 -40 -10 -18 -14 -33 -10 -33
5 0 3 -4 -2 -8 -25 -17 -105 -266 -122 -377 -2 -16 -7 -41 -10 -55 -3 -14 -6
-95 -8 -180 -3 -169 13 -314 47 -435 7 -22 13 -47 14 -56 0 -9 5 -23 10 -30 5
-8 9 -18 10 -24 1 -5 8 -23 15 -40 15 -35 13 -32 24 -70 4 -16 11 -32 15 -35
9 -7 54 -104 52 -112 -1 -5 2 -8 7 -8 5 0 15 -16 22 -35 7 -19 17 -35 21 -35
4 0 8 -7 8 -15 0 -8 5 -15 10 -15 6 0 10 -7 10 -15 0 -8 5 -15 11 -15 6 0 8
-7 5 -16 -3 -8 -2 -13 2 -10 4 2 21 -15 37 -39 17 -25 34 -45 38 -45 5 0 6 -4
3 -9 -3 -5 1 -11 9 -15 8 -3 15 -10 15 -16 0 -5 17 -28 38 -50 114 -122 171
-178 176 -173 3 4 6 -1 6 -11 0 -9 4 -15 9 -11 5 3 12 -4 16 -15 4 -11 11 -18
16 -15 5 4 9 1 9 -4 0 -6 7 -11 15 -11 8 0 15 -7 15 -16 0 -8 4 -13 9 -10 5 3
11 -1 15 -9 3 -8 10 -15 16 -15 5 0 18 -8 28 -18 32 -29 62 -52 62 -46 0 3 15
-9 33 -25 17 -17 36 -31 40 -31 4 0 31 -16 60 -35 28 -19 57 -35 64 -35 7 0
13 -4 13 -8 0 -10 268 -144 323 -162 20 -6 37 -16 37 -22 0 -6 3 -9 6 -6 3 4
21 0 40 -8 19 -8 34 -12 34 -8 0 3 7 -2 16 -11 13 -12 19 -13 24 -5 6 9 11 7
19 -6 6 -11 11 -16 11 -12 0 6 57 -9 110 -29 17 -7 24 -9 60 -17 14 -3 50 -12
80 -20 30 -8 71 -18 90 -21 19 -3 53 -10 75 -15 42 -9 77 -15 160 -26 28 -3
59 -8 70 -10 124 -24 562 -23 765 2 64 8 71 5 138 -49 37 -29 87 -69 112 -87
25 -19 48 -38 51 -43 3 -5 9 -7 12 -5 3 1 17 -7 31 -19 15 -13 30 -23 36 -23
5 0 14 -8 19 -18 6 -9 11 -13 11 -9 0 5 12 -1 26 -12 15 -12 33 -21 41 -21 8
0 11 -5 8 -10 -3 -6 3 -10 14 -10 10 0 21 -4 23 -8 8 -21 342 -195 352 -185 3
4 6 1 6 -5 0 -7 3 -11 8 -10 4 1 33 -11 66 -25 32 -15 62 -27 67 -27 5 0 9 -5
9 -11 0 -5 5 -7 10 -4 6 4 18 1 27 -7 9 -7 19 -12 22 -12 3 1 11 0 16 -2 22
-6 141 -46 155 -51 20 -8 31 -11 55 -17 11 -2 20 -5 20 -6 0 -1 7 -3 15 -5 8
-1 33 -7 55 -13 22 -6 51 -13 65 -16 14 -2 36 -7 50 -10 44 -12 120 -14 120
-4 0 5 4 7 9 4 13 -8 59 31 76 64 20 38 19 93 -1 133 -9 18 -20 34 -23 37 -16
12 -121 150 -121 159 0 5 -6 14 -13 18 -8 4 -22 23 -32 40 -11 18 -23 33 -27
33 -4 0 -7 3 -6 7 3 9 -52 94 -67 105 -5 4 -6 8 -1 8 5 0 2 8 -7 18 -22 24
-152 279 -192 376 -53 131 -55 118 21 167 37 24 75 49 85 54 15 10 43 31 121
96 25 21 30 24 72 57 16 12 25 22 21 22 -4 0 5 10 21 22 53 42 165 164 237
259 71 95 82 112 80 121 -2 4 2 8 7 8 10 0 35 48 32 63 -1 4 2 7 8 7 11 0 44
60 33 60 -5 0 0 5 10 11 9 5 17 16 17 23 0 7 11 36 25 64 14 29 24 53 23 54
-1 2 5 14 12 28 8 14 15 30 16 35 1 6 13 48 28 94 15 46 29 100 32 120 3 20 7
41 9 48 27 80 27 424 0 553 -3 14 -8 39 -11 55 -3 17 -12 55 -21 85 -9 30 -16
61 -16 68 0 6 -3 12 -7 12 -4 0 -13 25 -20 55 -7 30 -17 55 -22 55 -5 0 -6 5
-3 10 3 6 1 10 -5 10 -7 0 -10 7 -6 15 3 8 2 15 -3 15 -8 0 -22 35 -18 44 1 2
-5 12 -14 22 -9 11 -20 29 -23 42 -4 12 -12 22 -17 22 -5 0 -8 3 -7 8 1 8 -13
45 -21 52 -10 9 -51 69 -51 75 0 6 -54 77 -77 103 -7 7 -13 16 -13 20 0 4 -27
36 -60 72 -33 36 -60 68 -60 73 0 4 -7 7 -15 7 -8 0 -14 6 -13 13 2 6 -3 11
-9 9 -7 -1 -13 3 -13 9 0 10 -24 39 -33 39 -2 0 -28 23 -56 50 -28 28 -56 50
-60 50 -5 0 -11 3 -13 8 -5 12 -140 114 -196 147 -9 6 -42 26 -72 45 -30 19
-57 33 -59 32 -2 -2 -7 1 -10 6 -6 9 -90 56 -103 57 -4 0 -13 6 -19 13 -7 6
-16 12 -20 12 -4 0 -45 17 -91 38 -45 21 -108 48 -138 59 -30 12 -74 28 -96
36 -23 9 -44 13 -48 10 -3 -4 -6 0 -6 7 0 7 -3 11 -6 8 -3 -4 -21 0 -40 8 -19
8 -34 12 -34 9 0 -2 -21 3 -47 13 -27 10 -52 18 -58 18 -12 0 -64 13 -85 21
-8 4 -19 5 -23 4 -5 -1 -25 3 -45 8 -20 6 -59 13 -87 17 -27 3 -59 8 -70 11
-11 3 -38 6 -60 8 -22 2 -53 6 -70 9 -39 7 -222 19 -305 20 -36 0 -68 5 -72
11 -5 7 -8 7 -8 -1z"/>
</g>
</svg>
